<?xml version="1.0" standalone="no"?>
<!DOCTYPE svg PUBLIC "-//W3C//DTD SVG 20010904//EN"
 "http://www.w3.org/TR/2001/REC-SVG-20010904/DTD/svg10.dtd">
<svg version="1.0" xmlns="http://www.w3.org/2000/svg"
 width="175.000000pt" height="175.000000pt" viewBox="0 0 175.000000 175.000000"
 preserveAspectRatio="xMidYMid meet">
<metadata>
Created by potrace 1.11, written by Peter Selinger 2001-2013
</metadata>
<g transform="translate(0.000000,175.000000) scale(0.100000,-0.100000)"
fill="#000000" stroke="none">
<path d="M664 1609 c-28 -14 -83 -101 -115 -184 l-27 -70 -62 -17 c-133 -37
-164 -84 -80 -126 25 -12 64 -27 88 -32 l42 -11 0 -52 c1 -29 7 -69 14 -89
l13 -37 -91 -3 c-85 -3 -91 -5 -94 -25 -2 -12 11 -54 28 -94 17 -39 29 -73 28
-73 -78 -42 -137 -110 -157 -181 -6 -22 -11 -105 -11 -185 0 -165 10 -199 71
-232 31 -17 69 -18 549 -18 481 0 518 1 550 18 60 32 70 66 70 238 0 111 -4
163 -16 197 -15 45 -76 118 -122 147 l-23 15 31 84 c39 107 37 111 -80 111
l-88 0 14 38 c7 20 13 60 14 89 l0 52 43 11 c128 31 168 84 94 126 -21 11 -62
26 -91 33 -51 11 -54 14 -71 59 -23 61 -78 161 -105 189 -35 38 -64 39 -139 4
-37 -17 -74 -31 -82 -31 -8 0 -43 14 -77 30 -68 32 -85 35 -118 19z m196 -481
c19 0 85 4 146 7 79 5 113 4 118 -4 4 -6 -7 -41 -24 -77 -24 -51 -38 -68 -64
-79 -61 -26 -106 -2 -152 80 -17 31 -36 24 -63 -24 -31 -57 -74 -76 -128 -58
-33 10 -43 21 -71 77 -18 36 -30 71 -27 79 4 11 27 12 118 7 61 -4 128 -8 147
-8z m-172 -377 c64 -32 67 -35 104 -101 l25 -45 -33 -170 c-18 -93 -33 -172
-34 -175 -2 -6 -129 491 -130 508 0 17 3 16 68 -17z m412 22 c1 -23 -124 -512
-129 -507 -3 3 -20 82 -37 174 l-30 169 34 56 c27 44 46 62 91 85 60 31 71 34
71 23z"/>
</g>
</svg>
